# xmcd
#
# Track frame offsets:
#	150
#	17507
#	29045
#	38271
#	51747
#	70883
#	83552
#	95276
#	108926
#	125642
#	142274
#	164821
#	181114
#	198563
#	212299
#	226049
#	237125
#	249717
#	261684
#	273963
#
# Disc length: 3819 seconds
#
# Revision: 1
# Processed by: cddbd v1.5.1PL0 Copyright (c) Steve Scherf et al.
# Submitted via: EasyCDDAExtractor 6.5.0.1
#
DISCID=1d0ee914
DTITLE=RaY Price - 20 Hits
DYEAR=1955
DGENRE=Country
TTITLE0=For The Good Times
TTITLE1=Burning Memories
TTITLE2=Take Me As I Am (Or Let Me Go)
TTITLE3=Lonesomest Lonesome
TTITLE4=She Wears My Ring
TTITLE5=Heart Over Mind
TTITLE6=Crazy Arms
TTITLE7=The Other Woman (In My Life)
TTITLE8=You're The Best Thing That Ever Happened To Me
TTITLE9=I Won't Mention It Again
TTITLE10=Danny Boy
TTITLE11=Release Me
TTITLE12=She's Got To Be A Saint
TTITLE13=City Lights
TTITLE14=Heartaches By The Number
TTITLE15=Make The World Go Away
TTITLE16=I've Got A New Heartache
TTITLE17=My Shoes Keep Walking Back To You
TTITLE18=Talk To Your Heart
TTITLE19=Don't Let The Stars Get In Your Eyes
EXTD=
EXTT0=
EXTT1=
EXTT2=
EXTT3=
EXTT4=
EXTT5=
EXTT6=
EXTT7=
EXTT8=
EXTT9=
EXTT10=
EXTT11=
EXTT12=
EXTT13=
EXTT14=
EXTT15=
EXTT16=
EXTT17=
EXTT18=
EXTT19=
PLAYORDER=
